<?xml version="1.0" standalone="no"?><!DOCTYPE svg PUBLIC "-//W3C//DTD SVG 1.1//EN" "http://www.w3.org/Graphics/SVG/1.1/DTD/svg11.dtd"><svg t="1659768627391" class="icon" viewBox="0 0 1070 1024" version="1.1" xmlns="http://www.w3.org/2000/svg" p-id="7985" xmlns:xlink="http://www.w3.org/1999/xlink" width="208.984375" height="200"><defs><style type="text/css">@font-face { font-family: feedback-iconfont; src: url("//at.alicdn.com/t/font_1031158_u69w8yhxdu.woff2?t=1630033759944") format("woff2"), url("//at.alicdn.com/t/font_1031158_u69w8yhxdu.woff?t=1630033759944") format("woff"), url("//at.alicdn.com/t/font_1031158_u69w8yhxdu.ttf?t=1630033759944") format("truetype"); }
</style></defs><path d="M21.944686 1023.860373c-2.396927-11.961366-2.396927-43.05161 0-76.538781 7.167511-59.806831 31.113515-102.858441 66.997613-129.178102 26.31966-19.128878 59.806831-28.693316 88.523419-35.884099 14.358294-2.396927 28.716588-7.167511 40.677954-9.564438 71.768198-16.73195 122.685453-33.487171 177.69843-105.255369 4.793855-4.770584 33.510442-47.845465-43.05161-141.116197-33.510442-40.677954-55.036248-95.69093-64.600687-165.0622-9.58771-71.768198-2.396927-138.74254 4.770584-181.794151 9.58771-50.242393 38.281026-95.69093 81.355908-129.178101S470.030498 0.069813 522.669818 0.069813c52.616049 0 105.255369 16.73195 148.33025 50.219122s71.791469 78.935709 81.355908 131.575029c7.167511 43.05161 14.358294 110.025953 4.793855 181.79415-9.58771 66.974343-31.113515 121.987319-64.600687 165.038929-76.585324 93.294003-45.471809 136.368884-43.074881 141.139468 55.036248 74.165125 129.201373 90.897075 200.96957 105.255369 14.358294 2.396927 28.716588 7.167511 43.074882 9.564439 26.31966 7.167511 59.806831 16.755221 86.126491 35.884099 78.95898 55.012976 71.791469 174.626639 69.394541 203.319955H21.944686z" p-id="7986" fill="#7BEBAA"></path></svg>